<svg
  xmlns="http://www.w3.org/2000/svg"
  viewBox="0 0 48 48"
  fill="none"
  aria-hidden="true"
>
  <path
    d="M12.5 25.5c-3.7 0-6.2-2.05-6.2-5.15 0-3 2.35-5.05 5.65-5.05.75-4.25 4.25-7.15 8.8-7.15 4.1 0 7.35 2.25 8.6 5.85 1.05-.55 2.25-.85 3.55-.85 4.1 0 7.1 2.65 7.1 6.25 0 3.75-3.15 6.3-7.75 6.3H12.5Z"
    stroke="currentColor"
    stroke-width="2.4"
    stroke-linecap="round"
    stroke-linejoin="round"
  />
  <path
    d="M23.8 25.8v14.4"
    stroke="currentColor"
    stroke-width="3.2"
    stroke-linecap="round"
  />
  <path
    d="M23.8 35.6c-4.9-1.3-8.2-3.65-9.95-7.05M23.9 33.1c4.8-1.1 8.15-3.45 10.05-7.05"
    stroke="currentColor"
    stroke-width="2.2"
    stroke-linecap="round"
  />
  <path
    d="M15.5 40.4h16.8"
    stroke="currentColor"
    stroke-width="2.2"
    stroke-linecap="round"
    opacity=".7"
  />
</svg>
