<svg
  xmlns="http://www.w3.org/2000/svg"
  viewBox="0 0 48 48"
  fill="none"
  aria-hidden="true"
>
  <path
    d="M24 4.75c8.6 0 15.9 4.95 18.5 12.15-4.65-2.2-9.15-2.75-13.45-1.65-4.75 1.25-8.75 4.45-12 9.65l-6.7 10.75"
    stroke="currentColor"
    stroke-width="2.6"
    stroke-linecap="round"
    stroke-linejoin="round"
  />
  <path
    d="M9.4 35.65c4.65 2.85 9.6 3.75 14.85 2.7 5.35-1.05 10.35-4.1 15-9.15"
    stroke="currentColor"
    stroke-width="2.6"
    stroke-linecap="round"
  />
  <path
    d="M17.05 24.9c3.95 2.45 8.15 2.6 12.6.45 2.2-1.1 4.2-2.55 6-4.35"
    stroke="currentColor"
    stroke-width="2.6"
    stroke-linecap="round"
  />
  <path
    d="M21.2 11.6 31.1 39"
    stroke="currentColor"
    stroke-width="2.6"
    stroke-linecap="round"
  />
  <path
    d="M12.35 11.5c3.2-4.25 7.05-6.5 11.65-6.75 4.45.2 8.35 2.25 11.65 6.15"
    stroke="currentColor"
    stroke-width="1.55"
    stroke-linecap="round"
    opacity=".55"
  />
</svg>
